<?xml version="1.0" standalone="no"?>
<!DOCTYPE svg PUBLIC "-//W3C//DTD SVG 20010904//EN"
 "http://www.w3.org/TR/2001/REC-SVG-20010904/DTD/svg10.dtd">
<svg version="1.0" xmlns="http://www.w3.org/2000/svg"
 width="1584.000000pt" height="1224.000000pt" viewBox="0 0 1584.000000 1224.000000"
 preserveAspectRatio="xMidYMid meet">

<g transform="translate(0.000000,1224.000000) scale(0.100000,-0.100000)"
fill="#000000" stroke="none">
<path d="M9688 6682 c-30 -18 -58 -67 -58 -101 0 -36 27 -88 53 -106 33 -21
100 -22 132 -1 14 10 35 31 45 49 17 28 24 31 57 29 114 -8 492 -43 513 -47
36 -7 465 -45 525 -47 58 -2 98 19 121 63 32 62 9 135 -52 164 -36 17 -47 17
-233 1 -432 -37 -745 -67 -809 -76 -101 -15 -106 -14 -119 20 -23 60 -117 89
-175 52z"/>
<path d="M3022 6387 c-46 -14 -121 -84 -143 -132 -38 -83 -20 -193 44 -262 71
-77 71 -77 350 -83 l249 -5 34 -37 c26 -29 34 -47 34 -74 0 -42 -29 -95 -62
-112 -16 -8 -119 -13 -331 -14 -292 -3 -309 -4 -323 -22 -18 -25 -18 -57 0
-82 14 -18 29 -19 333 -19 370 0 378 2 452 94 45 58 55 95 49 179 -3 48 -11
66 -45 113 -67 90 -78 93 -358 99 -208 4 -245 7 -268 23 -87 57 -68 189 32
217 20 5 164 10 322 10 264 0 287 1 302 18 24 26 21 68 -5 86 -19 14 -66 16
-328 15 -183 -1 -318 -5 -338 -12z"/>
<path d="M3872 6390 c-40 -17 -47 -64 -14 -102 14 -16 42 -18 323 -18 l307 0
31 -25 c62 -53 62 -137 0 -190 l-31 -25 -304 0 -305 0 -24 -25 c-25 -24 -25
-25 -25 -220 0 -195 0 -196 25 -220 29 -30 45 -31 76 -6 23 19 24 25 27 185
l3 166 275 0 c251 0 278 2 312 19 82 43 142 136 142 223 0 65 -49 161 -100
196 -69 46 -114 52 -414 51 -155 0 -291 -4 -304 -9z"/>
<path d="M5148 6385 c-124 -27 -236 -112 -292 -222 -38 -76 -53 -184 -37 -270
18 -98 42 -146 113 -220 72 -74 127 -106 216 -123 144 -29 276 7 378 103 76
70 115 145 134 252 22 130 -25 272 -123 366 -62 60 -123 94 -209 114 -74 17
-103 17 -180 0z m223 -143 c61 -30 111 -79 140 -139 20 -40 24 -63 24 -138 0
-78 -4 -97 -27 -141 -69 -132 -216 -191 -365 -145 -59 17 -78 29 -121 75 -55
58 -67 80 -84 159 -11 54 2 149 28 199 26 49 101 115 156 137 72 28 183 25
249 -7z"/>
<path d="M5811 6374 c-27 -34 -26 -50 4 -79 l24 -25 304 0 305 0 30 -28 c43
-41 51 -93 23 -148 -12 -23 -34 -47 -47 -53 -17 -7 -123 -11 -324 -11 -292 0
-301 -1 -321 -21 -16 -16 -20 -29 -15 -53 9 -49 34 -65 281 -182 66 -31 192
-91 281 -134 218 -105 226 -108 258 -86 18 11 26 25 26 45 0 33 -21 54 -75 77
-22 9 -87 38 -143 65 -57 27 -106 49 -108 49 -3 0 -48 21 -102 46 -53 25 -108
51 -122 58 -20 9 17 12 185 16 l210 5 47 33 c65 45 99 106 106 187 4 58 2 72
-26 128 -21 42 -43 70 -68 85 -76 49 -97 52 -415 52 l-298 0 -20 -26z"/>
<path d="M6785 6375 c-31 -30 -31 -45 0 -79 l24 -26 161 0 160 0 0 -343 c0
-377 1 -380 58 -380 64 0 62 -10 62 374 l0 349 164 0 165 0 20 26 c26 33 26
45 0 78 l-20 26 -385 0 -385 0 -24 -25z"/>
<path d="M7904 6384 c-90 -32 -164 -136 -164 -229 0 -93 68 -194 152 -229 30
-13 81 -16 258 -16 245 0 277 -6 304 -59 20 -38 20 -93 1 -130 -28 -56 -63
-61 -389 -61 -271 0 -294 -1 -309 -18 -25 -28 -21 -67 8 -86 23 -15 60 -17
338 -14 312 3 313 3 362 28 31 17 62 44 85 75 34 48 35 52 35 141 0 87 -2 95
-30 135 -17 24 -53 57 -79 74 l-49 30 -248 5 c-276 6 -270 4 -304 80 -22 49
-14 83 30 127 l33 33 306 0 c293 0 307 1 326 20 25 25 26 72 2 93 -17 15 -53
17 -323 16 -240 0 -313 -4 -345 -15z"/>
<path d="M8748 6384 c-20 -10 -28 -23 -28 -42 0 -41 366 -769 397 -789 44 -29
69 -4 137 132 32 66 117 238 188 381 138 277 141 288 93 320 -52 34 -55 30
-275 -401 -56 -110 -106 -204 -110 -208 -8 -9 -52 71 -204 364 -107 208 -124
237 -146 249 -23 12 -19 12 -52 -6z"/>
<path d="M9712 6380 c-22 -21 -22 -22 -22 -415 l0 -394 22 -15 c30 -21 54 -20
78 4 19 19 20 33 20 410 0 388 0 389 -22 410 -12 11 -29 20 -38 20 -9 0 -26
-9 -38 -20z"/>
<path d="M10092 6381 c-65 -26 -104 -62 -136 -125 -25 -50 -28 -64 -24 -119 6
-68 31 -119 84 -169 57 -53 84 -58 326 -58 198 0 227 -2 258 -19 42 -22 60
-53 60 -104 0 -56 -23 -92 -70 -111 -34 -13 -86 -16 -334 -16 -276 0 -294 -1
-310 -19 -25 -27 -17 -72 14 -88 39 -20 589 -18 656 2 106 31 165 115 165 231
0 51 -5 78 -23 113 -27 52 -91 105 -146 121 -20 5 -133 10 -250 10 -237 0
-254 4 -291 63 -33 54 -28 93 18 138 l39 39 305 0 c279 0 307 2 327 18 14 11
23 29 23 47 0 18 -9 36 -23 47 -20 17 -47 18 -324 17 -263 0 -306 -2 -344 -18z"/>
<path d="M10932 6384 l-22 -15 0 -399 0 -400 25 -16 c32 -21 68 -12 83 21 9
18 12 136 12 401 l0 375 -25 24 c-28 29 -42 31 -73 9z"/>
<path d="M11495 6388 c-131 -25 -248 -118 -308 -246 -29 -62 -32 -75 -32 -173
0 -104 1 -107 42 -190 72 -145 191 -225 353 -236 88 -6 178 13 245 53 60 35
143 127 174 194 23 50 26 67 26 175 0 110 -2 125 -28 179 -55 118 -170 212
-297 240 -76 18 -102 18 -175 4z m197 -139 c61 -23 130 -86 160 -144 29 -55
35 -165 14 -236 -21 -69 -92 -150 -161 -181 -39 -17 -68 -22 -130 -22 -97 0
-136 16 -204 79 -168 157 -111 433 106 511 58 20 154 17 215 -7z"/>
<path d="M12158 6384 c-15 -8 -30 -25 -33 -37 -3 -12 -5 -192 -3 -400 3 -407
1 -389 56 -403 15 -4 30 0 42 11 19 17 20 33 20 307 0 244 2 289 14 286 8 -2
117 -102 243 -223 359 -347 400 -385 420 -385 10 0 29 7 41 16 l22 15 0 392
c0 216 -4 397 -8 403 -4 6 -18 17 -31 24 -20 10 -27 9 -50 -8 l-26 -19 -5
-294 -5 -294 -85 81 c-47 45 -126 121 -176 170 -316 308 -387 375 -402 374 -4
-1 -19 -7 -34 -16z"/>
</g>
</svg>
