<?xml version="1.0" standalone="no"?>
<!DOCTYPE svg PUBLIC "-//W3C//DTD SVG 20010904//EN"
 "http://www.w3.org/TR/2001/REC-SVG-20010904/DTD/svg10.dtd">
<svg version="1.0" xmlns="http://www.w3.org/2000/svg"
 width="1584.000000pt" height="1224.000000pt" viewBox="0 0 1584.000000 1224.000000"
 preserveAspectRatio="xMidYMid meet">

<g transform="translate(0.000000,1224.000000) scale(0.100000,-0.100000)"
fill="#FFFFFF" stroke="none">
<path d="M4285 9499 c-119 -17 -259 -81 -352 -159 -118 -100 -192 -217 -238
-380 -24 -81 -27 -105 -23 -199 6 -128 48 -267 111 -364 45 -70 167 -194 212
-217 17 -8 41 -22 54 -32 13 -10 59 -29 102 -43 227 -71 451 -43 633 79 94 63
141 111 206 206 41 60 100 203 100 243 0 9 6 17 14 17 31 0 582 -51 596 -55 8
-2 148 -16 310 -30 593 -51 855 -75 876 -80 12 -3 277 -27 590 -55 313 -27
603 -54 644 -59 41 -6 183 -20 315 -31 486 -41 810 -71 825 -75 8 -2 148 -16
310 -30 606 -52 856 -75 880 -80 14 -3 250 -25 525 -49 397 -35 515 -42 571
-35 357 44 624 351 624 717 0 90 -4 116 -35 211 -43 132 -91 209 -193 308 -78
75 -142 114 -254 157 -108 40 -188 47 -372 30 -89 -8 -172 -16 -186 -19 -14
-3 -279 -28 -590 -55 -311 -27 -599 -54 -640 -60 -41 -5 -210 -21 -375 -35
-493 -42 -749 -65 -765 -70 -8 -2 -172 -18 -365 -35 -622 -54 -810 -71 -825
-75 -8 -3 -271 -27 -585 -54 -313 -28 -604 -55 -645 -61 -41 -5 -262 -25 -490
-45 -341 -29 -546 -48 -733 -68 -15 -2 -23 13 -41 73 -39 133 -107 239 -213
334 -101 90 -244 157 -378 175 -86 12 -114 12 -200 0z"/>
<path d="M6730 7730 c-100 -8 -309 -55 -396 -89 -28 -11 -96 -44 -151 -74
-258 -141 -478 -370 -608 -632 -64 -130 -95 -231 -125 -414 -19 -110 -22 -155
-17 -260 6 -132 40 -321 77 -431 113 -339 429 -680 768 -830 121 -53 177 -71
302 -96 76 -16 210 -18 1320 -23 l1235 -7 94 -37 c159 -63 286 -172 372 -319
58 -99 79 -173 86 -303 6 -118 -5 -212 -36 -300 -24 -69 -101 -185 -164 -249
-68 -70 -193 -150 -276 -178 l-66 -23 -1715 -5 -1715 -5 -50 -23 c-95 -44
-148 -93 -191 -177 -35 -71 -39 -85 -39 -154 1 -141 74 -258 206 -327 l54 -29
1750 0 1750 0 120 32 c173 46 222 65 335 128 475 263 753 729 753 1265 0 148
-31 341 -77 475 -35 103 -110 249 -179 345 -70 98 -259 288 -338 341 -117 78
-166 108 -204 124 -149 63 -217 87 -303 107 -96 22 -104 22 -1337 28 -944 4
-1249 9 -1277 18 -219 74 -357 181 -456 355 -66 116 -86 210 -80 377 6 158 24
224 94 336 88 141 252 271 401 318 68 21 75 21 1778 26 941 3 1721 9 1735 14
50 18 152 99 181 145 17 25 39 77 50 114 24 76 21 120 -12 207 -38 99 -87 152
-189 203 l-65 32 -1650 1 c-907 1 -1693 -2 -1745 -6z"/>
<path d="M4045 7700 c-13 -26 -15 -302 -15 -2475 l0 -2446 25 -24 24 -25 303
0 c259 0 307 2 326 16 l22 15 0 2468 c0 2378 -1 2469 -18 2484 -16 15 -55 17
-335 17 l-316 0 -16 -30z"/>
<path d="M11126 7708 c-14 -20 -16 -272 -16 -2480 0 -2445 0 -2458 20 -2478
19 -19 33 -20 328 -20 250 0 312 3 328 14 19 14 19 52 22 2477 2 2195 0 2465
-13 2486 l-15 23 -320 0 c-318 0 -319 0 -334 -22z"/>
</g>
</svg>
